<?xml version="1.0" encoding="UTF-8"?>
<!DOCTYPE svg PUBLIC "-//W3C//DTD SVG 1.1//EN" "http://www.w3.org/Graphics/SVG/1.1/DTD/svg11.dtd">
<!-- Creator: CorelDRAW 2018 (64-Bit Evaluation Version) -->
<svg xmlns="http://www.w3.org/2000/svg" xml:space="preserve" width="86.5695mm" height="63.8194mm" version="1.1" style="shape-rendering:geometricPrecision; text-rendering:geometricPrecision; image-rendering:optimizeQuality; fill-rule:evenodd; clip-rule:evenodd"
viewBox="0 0 8656.94 6381.93"
 xmlns:xlink="http://www.w3.org/1999/xlink">
 <defs>
  <style type="text/css">
   <![CDATA[
    .fil5 {fill:#EF7F1A}
    .fil4 {fill:#E31E24}
    .fil3 {fill:#A12421}
    .fil1 {fill:#A7B13F}
    .fil0 {fill:#326870}
    .fil6 {fill:#2B2A29;fill-rule:nonzero}
    .fil2 {fill:#3E522F;fill-rule:nonzero}
   ]]>
  </style>
 </defs>
 <g id="Layer_x0020_1">
  <metadata id="CorelCorpID_0Corel-Layer"/>
  <g id="_2847828747616">
   <path class="fil0" d="M2797.21 2573.39c-125.08,820.57 623.31,2018.26 2070.71,1898.51 -45.64,-302.86 -90.69,-514.13 -241.82,-793.23 -349.41,-645.23 -1042.94,-1092.62 -1828.89,-1105.28z"/>
   <path class="fil1" d="M3618.84 2333.79c-278.83,-4.49 -547.76,36.75 -799.62,116.79 0.07,7.98 0.2,15.95 0.37,23.91 1.66,0.02 3.31,0.04 4.96,0.07 861.04,13.87 1597.58,524.63 1940.84,1254.7 131.34,279.35 150.93,446.36 193.65,734.77 362.67,-40.33 732.88,-248.37 957.51,-527.06 -356.77,-924.08 -1246.38,-1586.24 -2297.71,-1603.18z"/>
   <path class="fil2" d="M5653.16 4521.45c25.57,-14.03 57.69,-4.69 71.72,20.88 14.03,25.57 4.69,57.69 -20.88,71.72 -164.61,90.6 -339.77,159.77 -521.1,206.38 -181.46,46.64 -368.21,70.52 -555.89,70.52 -616.81,0 -1175.24,-250.03 -1579.45,-654.24 -404.21,-404.21 -654.24,-962.64 -654.24,-1579.45 0,-219.1 32.29,-435.92 94.85,-643.73 62.53,-207.73 155.37,-406.41 276.46,-589.3 16.09,-24.31 48.86,-30.98 73.17,-14.89 24.31,16.09 30.98,48.86 14.89,73.17 -115.27,174.1 -203.67,363.31 -263.24,561.2 -59.55,197.83 -90.29,404.47 -90.29,613.55 0,587.6 238.17,1119.58 623.22,1504.63 385.05,385.05 917.03,623.22 1504.63,623.22 180.02,0 358.01,-22.61 529.85,-66.78 171.97,-44.2 338.8,-110.19 496.3,-196.88z"/>
   <path class="fil2" d="M6166.2 3622.79c15.52,-24.65 48.11,-32.06 72.76,-16.54 24.65,15.52 32.06,48.11 16.54,72.76 -175.83,280.27 -417.58,505.51 -698.07,660.66 -280.49,155.15 -599.69,240.24 -930.42,240.24 -530.9,0 -1011.58,-215.21 -1359.5,-563.14 -347.93,-347.92 -563.14,-828.6 -563.14,-1359.5 0,-525.47 211.11,-1002.33 553.61,-1349.71 319.81,-324.36 725.1,-524.14 1173.66,-553.48 29.06,-1.83 54.1,20.24 55.93,49.29 1.83,29.06 -20.24,54.1 -49.3,55.93 -419.07,27.41 -811.39,224.42 -1105.05,522.26 -323.56,328.18 -523.01,778.89 -523.01,1275.71 0,501.71 203.35,955.92 532.12,1284.68 328.76,328.77 782.97,532.12 1284.68,532.12 312.8,0 614.55,-80.4 879.58,-227 265.03,-146.6 493.46,-359.43 659.61,-624.28z"/>
   <path class="fil3" d="M5496.13 875.75c0,0 -378.88,-602.77 -948.66,-73.17 0,0 387.44,569.02 948.66,73.17z"/>
   <path class="fil3" d="M4629.9 0.59c0,0 -640.03,-46.11 -661.63,682.75 0,0 623.45,20.82 661.63,-682.75z"/>
   <path class="fil4" d="M3813.92 11.1c0,0 -600.05,227.4 -313.05,897.72 0,0 574.36,-243.36 313.05,-897.72z"/>
   <path class="fil5" d="M3151.89 300.47c0,0 -532.77,357.67 -101.1,945.35 0,0 504.13,-367.4 101.1,-945.35z"/>
   <path class="fil4" d="M4814.42 1283.95c0,0 -467.41,439.66 -944.11,-112.12 0,0 470.5,-409.58 944.11,112.12z"/>
   <path class="fil5" d="M4250.04 1625.44c0,0 -401.37,500.67 -950.51,20.92 0,0 408.65,-471.31 950.51,-20.92z"/>
   </g>
 </g>
</svg>
