<svg xmlns="http://www.w3.org/2000/svg" viewBox="0 0 180 220"><g id="a7d53076-f9ee-4385-a5b6-a07f217edfd3" data-name="Layer 2"><g id="b323a1ce-f730-4aac-830f-41ec2fffaa9e" data-name="Layer 1"><path d="M49.15,148.12V131.49q.06-62,.13-124c0-7.41.06-7.4,7.52-7.4q62.25,0,124.49.06a21.79,21.79,0,0,1,8.22,1.45c5.49,2.33,6.81,7.86,3,12.35C179,29.63,165.77,45.47,151.82,60.67c-19.47,21.25-39.8,41.7-62.51,59.54-11.1,8.72-22.91,16.54-34.43,24.72C53.56,145.87,52,146.52,49.15,148.12Z" fill="#ff6634"/><path d="M195.23,37.06V52.85c0,51.47-.08,102.94.13,154.4,0,5.27-1.86,6.43-6.57,6.53-16.74.36-32.67-3.76-48.35-8.77-30-9.58-58.58-22.63-86.61-36.89-.71-.36-1.35-.85-2.48-1.58C108.36,133.68,151.87,86.39,195.23,37.06Z" fill="#ff6634"/><path d="M33.21,156.46a26,26,0,0,1-4.15-1.32c-8.71-4.89-17.46-9.72-26-14.89a7,7,0,0,1-2.86-5Q0,73.48.11,11.72C.12,4.48,4.47.26,11.67.12c5.5-.1,11,.19,16.5-.1,4-.21,5.15,1.22,5.13,5.16-.14,28.67-.08,57.34-.08,86q0,29.75,0,59.51Z" fill="#ff6634"/><path d="M49.49,225.41V184.85c32.86,15.59,65.24,30.86,100,40.56Z" fill="#ff6634"/><path d="M33.22,201c0,6.67-.12,13.33.06,20,.09,3.37-1,5-4.53,4.87-6.16-.13-12.32.08-18.48-.13S.3,222,.16,215.69C-.09,204.87,0,194,.24,183.22c0-1.24,2.07-3.23,3.44-3.5,8.14-1.58,16.37-2.65,24.53-4.14,3.46-.63,5.07.25,5,3.93C33.16,186.67,33.21,193.83,33.22,201Z" fill="#ff6634"/><path d="M6.9,162C3.65,163.1.18,164.59.09,158.44Z" fill="#ff6634"/></g></g></svg>